<svg width="487" height="268" viewBox="0 0 487 268" fill="none" xmlns="http://www.w3.org/2000/svg">
<rect x="109" width="268" height="268" fill="url(#paint0_linear)"/>
<path d="M48 103C48 95.268 54.268 89 62 89H167C174.732 89 181 95.268 181 103C181 110.732 174.732 117 167 117H62C54.268 117 48 110.732 48 103Z" fill="url(#paint1_linear)"/>
<path d="M68 156C68 147.716 74.7157 141 83 141H186C194.284 141 201 147.716 201 156C201 164.284 194.284 171 186 171H83C74.7157 171 68 164.284 68 156Z" fill="url(#paint2_linear)"/>
<path d="M148 180.5C148 175.253 152.253 171 157.5 171H169.5C174.747 171 179 175.253 179 180.5C179 185.747 174.747 190 169.5 190H157.5C152.253 190 148 185.747 148 180.5Z" fill="url(#paint3_linear)"/>
<path d="M81 195.5C81 191.91 83.9101 189 87.5 189H187.5C191.09 189 194 191.91 194 195.5C194 199.09 191.09 202 187.5 202H87.5C83.9101 202 81 199.09 81 195.5Z" fill="url(#paint4_linear)"/>
<path d="M137 78C137 71.9249 141.925 67 148 67H168C174.075 67 179 71.9249 179 78C179 84.0751 174.075 89 168 89H148C141.925 89 137 84.0751 137 78Z" fill="url(#paint5_linear)"/>
<path d="M120 129C120 122.373 125.373 117 132 117H174C180.627 117 186 122.373 186 129C186 135.627 180.627 141 174 141H132C125.373 141 120 135.627 120 129Z" fill="url(#paint6_linear)"/>
<circle cx="11.5" cy="105.5" r="11.5" fill="#A879FB"/>
<rect x="252" y="67" width="106" height="27" rx="13.5" fill="url(#paint7_linear)"/>
<rect x="258" y="94" width="36" height="15" rx="7.5" fill="url(#paint8_linear)"/>
<rect x="254" y="109" width="128" height="28" rx="14" fill="url(#paint9_linear)"/>
<rect x="246" y="137" width="194" height="32" rx="16" fill="url(#paint10_linear)"/>
<rect x="263" y="169" width="95" height="21" rx="9" fill="url(#paint11_linear)"/>
<rect x="246" y="189" width="179" height="13" rx="6.5" fill="url(#paint12_linear)"/>
<circle cx="468.5" cy="155.5" r="18.5" fill="#59FFD0"/>
<circle cx="411" cy="104" r="7" fill="#58FDD0"/>
<rect x="163" y="67" width="121" height="135" fill="url(#paint13_linear)"/>
<path d="M152.24 157.143C149.584 157.143 147.123 156.762 144.857 156C142.592 155.258 140.619 154.154 138.939 152.689C137.24 151.225 135.912 149.438 134.955 147.328C134.018 145.219 133.549 142.846 133.549 140.209C133.549 136.303 134.232 132.719 135.6 129.457C136.986 126.176 138.91 123.324 141.371 120.902C143.793 118.52 146.684 116.664 150.043 115.336C153.422 113.988 157.064 113.314 160.971 113.314C163.334 113.314 165.678 113.607 168.002 114.193C170.346 114.76 172.104 115.375 173.275 116.039L175.443 114.428H177.992L174.77 129.604H172.191C171.762 125.092 170.551 121.703 168.559 119.438C166.586 117.152 164.027 116.01 160.883 116.01C158.383 116.01 156.156 116.752 154.203 118.236C152.25 119.721 150.6 121.645 149.252 124.008C147.924 126.312 146.889 129.066 146.146 132.27C145.424 135.453 145.062 138.598 145.062 141.703C145.062 145.57 145.814 148.646 147.318 150.932C148.842 153.197 151.078 154.33 154.027 154.33C155.629 154.33 157.016 154.066 158.188 153.539C159.359 153.012 160.395 152.367 161.293 151.605L163.139 143.666C163.217 143.314 163.275 142.992 163.314 142.699C163.373 142.387 163.402 142.143 163.402 141.967C163.402 141.146 162.895 140.512 161.879 140.062C160.863 139.594 159.418 139.223 157.543 138.949L158.041 136.811H180.541L180.043 138.949C179.438 138.988 178.734 139.086 177.934 139.242C177.133 139.398 176.488 139.545 176 139.682C175.18 139.936 174.584 140.336 174.213 140.883C173.842 141.41 173.578 141.996 173.422 142.641L172.25 147.709C172.055 148.568 171.889 149.35 171.752 150.053C171.635 150.736 171.508 151.479 171.371 152.279C169.125 153.568 166.146 154.701 162.436 155.678C158.744 156.654 155.346 157.143 152.24 157.143ZM198.453 156.967C196.109 156.967 194.049 156.645 192.271 156C190.514 155.375 189.059 154.496 187.906 153.363C186.773 152.23 185.924 150.912 185.357 149.408C184.791 147.904 184.508 146.244 184.508 144.428C184.508 142.123 184.938 139.887 185.797 137.719C186.656 135.551 187.936 133.598 189.635 131.859C191.236 130.199 193.268 128.852 195.729 127.816C198.189 126.781 200.904 126.264 203.873 126.264C207.369 126.264 210.025 126.82 211.842 127.934C213.678 129.047 214.596 130.717 214.596 132.943C214.596 135.072 213.805 136.908 212.223 138.451C210.641 139.975 208.492 141.107 205.777 141.85C203.629 142.494 201.793 142.953 200.27 143.227C198.766 143.5 196.92 143.754 194.732 143.988C194.771 144.848 194.889 145.814 195.084 146.889C195.279 147.963 195.572 148.881 195.963 149.643C196.432 150.521 197.096 151.225 197.955 151.752C198.814 152.26 199.908 152.514 201.236 152.514C203.541 152.514 205.494 152.074 207.096 151.195C208.717 150.297 210.26 148.881 211.725 146.947L213.863 148.734C212.105 151.234 209.85 153.236 207.096 154.74C204.361 156.225 201.48 156.967 198.453 156.967ZM205.074 133.764C205.074 132.104 204.771 130.834 204.166 129.955C203.561 129.057 202.721 128.607 201.646 128.607C200.143 128.607 198.717 129.838 197.369 132.299C196.041 134.74 195.191 137.836 194.82 141.586C195.973 141.449 197.115 141.273 198.248 141.059C199.381 140.844 200.279 140.59 200.943 140.297C202.408 139.652 203.463 138.822 204.107 137.807C204.752 136.791 205.074 135.443 205.074 133.764ZM259.461 151.518L258.816 154.154C256.883 154.916 255.34 155.502 254.188 155.912C253.035 156.303 251.697 156.498 250.174 156.498C247.85 156.498 246.043 155.922 244.754 154.77C243.465 153.598 242.82 152.152 242.82 150.434C242.82 149.965 242.84 149.369 242.879 148.646C242.938 147.904 243.104 146.986 243.377 145.893L245.486 138.1C245.701 137.26 245.857 136.508 245.955 135.844C246.072 135.16 246.131 134.604 246.131 134.174C246.131 133.236 245.906 132.504 245.457 131.977C245.008 131.449 244.246 131.186 243.172 131.186C242.508 131.186 241.561 131.449 240.33 131.977C239.1 132.484 237.723 133.441 236.199 134.848L231.365 156H221.668L225.828 137.982C225.945 137.436 226.092 136.723 226.268 135.844C226.463 134.965 226.561 134.232 226.561 133.646C226.561 132.533 226.326 131.771 225.857 131.361C225.408 130.932 224.578 130.717 223.367 130.717C222.742 130.717 222.098 130.814 221.434 131.01C220.789 131.205 220.232 131.391 219.764 131.566L220.408 128.93C221.99 128.285 223.504 127.738 224.949 127.289C226.395 126.82 227.762 126.586 229.051 126.586C231.355 126.586 233.074 127.045 234.207 127.963C235.359 128.861 236.121 130.131 236.492 131.771H236.697C238.611 130.033 240.584 128.686 242.615 127.729C244.666 126.752 246.844 126.264 249.148 126.264C251.316 126.264 253.006 126.859 254.217 128.051C255.447 129.242 256.062 130.688 256.062 132.387C256.062 132.836 256.023 133.471 255.945 134.291C255.887 135.092 255.73 135.951 255.477 136.869L253.25 145.102C253.055 145.785 252.879 146.566 252.723 147.445C252.566 148.324 252.488 148.988 252.488 149.438C252.488 150.57 252.732 151.342 253.221 151.752C253.729 152.162 254.607 152.367 255.857 152.367C256.443 152.367 257.107 152.27 257.85 152.074C258.592 151.859 259.129 151.674 259.461 151.518ZM295.742 132.357C295.742 133.236 295.615 134.086 295.361 134.906C295.107 135.727 294.727 136.43 294.219 137.016C293.652 137.68 293.057 138.178 292.432 138.51C291.807 138.822 290.928 138.979 289.795 138.979C288.33 138.979 287.178 138.617 286.338 137.895C285.498 137.172 285.078 136.361 285.078 135.463C285.078 134.623 285.195 133.9 285.43 133.295C285.684 132.689 286.074 131.771 286.602 130.541C285.293 131.088 284.17 131.762 283.232 132.562C282.295 133.344 281.396 134.242 280.537 135.258L275.908 156H266.211L270.254 137.982C270.371 137.436 270.518 136.723 270.693 135.844C270.889 134.965 270.986 134.232 270.986 133.646C270.986 132.514 270.762 131.742 270.312 131.332C269.883 130.922 269.043 130.717 267.793 130.717C267.168 130.717 266.523 130.814 265.859 131.01C265.215 131.205 264.658 131.391 264.189 131.566L264.834 128.93C266.416 128.285 267.93 127.738 269.375 127.289C270.82 126.82 272.188 126.586 273.477 126.586C275.781 126.586 277.5 127.045 278.633 127.963C279.785 128.861 280.547 130.131 280.918 131.771H281.123C283.057 129.721 284.697 128.295 286.045 127.494C287.393 126.674 288.838 126.264 290.381 126.264C292.041 126.264 293.35 126.791 294.307 127.846C295.264 128.881 295.742 130.385 295.742 132.357ZM314.387 156.967C312.043 156.967 309.982 156.645 308.205 156C306.447 155.375 304.992 154.496 303.84 153.363C302.707 152.23 301.857 150.912 301.291 149.408C300.725 147.904 300.441 146.244 300.441 144.428C300.441 142.123 300.871 139.887 301.73 137.719C302.59 135.551 303.869 133.598 305.568 131.859C307.17 130.199 309.201 128.852 311.662 127.816C314.123 126.781 316.838 126.264 319.807 126.264C323.303 126.264 325.959 126.82 327.775 127.934C329.611 129.047 330.529 130.717 330.529 132.943C330.529 135.072 329.738 136.908 328.156 138.451C326.574 139.975 324.426 141.107 321.711 141.85C319.562 142.494 317.727 142.953 316.203 143.227C314.699 143.5 312.854 143.754 310.666 143.988C310.705 144.848 310.822 145.814 311.018 146.889C311.213 147.963 311.506 148.881 311.896 149.643C312.365 150.521 313.029 151.225 313.889 151.752C314.748 152.26 315.842 152.514 317.17 152.514C319.475 152.514 321.428 152.074 323.029 151.195C324.65 150.297 326.193 148.881 327.658 146.947L329.797 148.734C328.039 151.234 325.783 153.236 323.029 154.74C320.295 156.225 317.414 156.967 314.387 156.967ZM321.008 133.764C321.008 132.104 320.705 130.834 320.1 129.955C319.494 129.057 318.654 128.607 317.58 128.607C316.076 128.607 314.65 129.838 313.303 132.299C311.975 134.74 311.125 137.836 310.754 141.586C311.906 141.449 313.049 141.273 314.182 141.059C315.314 140.844 316.213 140.59 316.877 140.297C318.342 139.652 319.396 138.822 320.041 137.807C320.686 136.791 321.008 135.443 321.008 133.764ZM347.592 156.967C345.131 156.967 343.09 156.762 341.469 156.352C339.867 155.961 338.598 155.453 337.66 154.828C336.703 154.203 336.049 153.539 335.697 152.836C335.346 152.113 335.17 151.439 335.17 150.814C335.17 149.682 335.59 148.695 336.43 147.855C337.289 146.996 338.422 146.566 339.828 146.566C341 146.566 341.977 146.869 342.758 147.475C343.559 148.08 344.223 148.842 344.75 149.76C345.238 150.6 345.648 151.527 345.98 152.543C346.312 153.559 346.547 154.311 346.684 154.799C348.891 154.799 350.561 154.33 351.693 153.393C352.826 152.436 353.393 151.137 353.393 149.496C353.393 148.773 353.217 148.168 352.865 147.68C352.533 147.191 352.084 146.762 351.518 146.391C350.951 146.039 350.229 145.697 349.35 145.365C348.471 145.033 347.602 144.721 346.742 144.428C344.379 143.627 342.504 142.523 341.117 141.117C339.75 139.691 339.066 137.924 339.066 135.814C339.066 134.564 339.35 133.393 339.916 132.299C340.502 131.186 341.41 130.16 342.641 129.223C343.852 128.324 345.385 127.611 347.24 127.084C349.096 126.537 351.264 126.264 353.744 126.264C355.229 126.264 356.605 126.352 357.875 126.527C359.145 126.703 360.326 127.025 361.42 127.494C362.455 127.963 363.256 128.578 363.822 129.34C364.408 130.082 364.701 130.99 364.701 132.064C364.701 133.139 364.291 134.066 363.471 134.848C362.67 135.609 361.615 135.99 360.307 135.99C359.174 135.99 358.227 135.697 357.465 135.111C356.723 134.525 356.117 133.832 355.648 133.031C355.18 132.211 354.809 131.371 354.535 130.512C354.262 129.633 354.037 128.9 353.861 128.314C352.494 128.393 351.244 128.891 350.111 129.809C348.998 130.707 348.441 131.83 348.441 133.178C348.441 133.998 348.568 134.643 348.822 135.111C349.096 135.58 349.457 135.971 349.906 136.283C350.414 136.635 351.049 136.967 351.811 137.279C352.592 137.572 353.559 137.914 354.711 138.305C357.367 139.242 359.369 140.365 360.717 141.674C362.064 142.982 362.738 144.711 362.738 146.859C362.738 148.266 362.406 149.613 361.742 150.902C361.098 152.191 360.17 153.266 358.959 154.125C357.611 155.062 356.059 155.766 354.301 156.234C352.543 156.723 350.307 156.967 347.592 156.967Z" fill="black"/>
<path d="M144.857 156L145.463 154.199L145.456 154.197L145.449 154.194L144.857 156ZM138.939 152.689L140.188 151.257L140.18 151.25L138.939 152.689ZM134.955 147.328L133.219 148.1L133.222 148.106L133.225 148.113L134.955 147.328ZM135.6 129.457L133.849 128.717L133.847 128.723L135.6 129.457ZM141.371 120.902L140.039 119.548L140.038 119.548L141.371 120.902ZM150.043 115.336L150.742 117.103L150.747 117.101L150.043 115.336ZM168.002 114.193L167.537 116.036L167.547 116.038L167.556 116.04L168.002 114.193ZM173.275 116.039L172.339 117.692L173.415 118.302L174.409 117.564L173.275 116.039ZM175.443 114.428V112.528H174.815L174.31 112.903L175.443 114.428ZM177.992 114.428L179.851 114.822L180.338 112.528H177.992V114.428ZM174.77 129.604V131.504H176.308L176.628 129.998L174.77 129.604ZM172.191 129.604L170.3 129.784L170.464 131.504H172.191V129.604ZM168.559 119.438L167.12 120.679L167.126 120.686L167.132 120.692L168.559 119.438ZM149.252 124.008L150.898 124.956L150.902 124.949L149.252 124.008ZM146.146 132.27L144.296 131.841L144.294 131.849L146.146 132.27ZM147.318 150.932L145.731 151.976L145.736 151.984L145.742 151.992L147.318 150.932ZM161.293 151.605L162.522 153.055L163.001 152.648L163.144 152.036L161.293 151.605ZM163.139 143.666L164.989 144.096L164.991 144.087L164.993 144.078L163.139 143.666ZM163.314 142.699L161.447 142.349L161.438 142.398L161.431 142.448L163.314 142.699ZM161.879 140.062L161.083 141.788L161.096 141.794L161.11 141.8L161.879 140.062ZM157.543 138.949L155.692 138.518L155.224 140.531L157.269 140.829L157.543 138.949ZM158.041 136.811V134.911H156.533L156.191 136.38L158.041 136.811ZM180.541 136.811L182.392 137.241L182.934 134.911H180.541V136.811ZM180.043 138.949L180.165 140.845L181.573 140.754L181.893 139.38L180.043 138.949ZM176 139.682L175.488 137.852L175.463 137.859L175.438 137.867L176 139.682ZM174.213 140.883L175.767 141.976L175.776 141.963L175.785 141.95L174.213 140.883ZM173.422 142.641L171.575 142.193L171.573 142.203L171.571 142.213L173.422 142.641ZM172.25 147.709L170.399 147.281L170.397 147.288L172.25 147.709ZM171.752 150.053L169.887 149.69L169.883 149.711L169.879 149.732L171.752 150.053ZM171.371 152.279L172.317 153.927L173.093 153.482L173.244 152.599L171.371 152.279ZM162.436 155.678L161.952 153.84L161.95 153.841L162.436 155.678ZM152.24 155.243C149.767 155.243 147.513 154.888 145.463 154.199L144.252 157.801C146.733 158.635 149.401 159.043 152.24 159.043V155.243ZM145.449 154.194C143.408 153.526 141.663 152.544 140.188 151.257L137.691 154.121C139.575 155.765 141.775 156.99 144.266 157.806L145.449 154.194ZM140.18 151.25C138.696 149.971 137.532 148.41 136.685 146.543L133.225 148.113C134.292 150.465 135.784 152.478 137.699 154.129L140.18 151.25ZM136.691 146.556C135.876 144.722 135.449 142.618 135.449 140.209H131.649C131.649 143.074 132.159 145.715 133.219 148.1L136.691 146.556ZM135.449 140.209C135.449 136.528 136.092 133.197 137.352 130.192L133.847 128.723C132.373 132.24 131.649 136.077 131.649 140.209H135.449ZM137.35 130.197C138.642 127.138 140.427 124.497 142.704 122.257L140.038 119.548C137.394 122.151 135.33 125.213 133.849 128.717L137.35 130.197ZM142.704 122.257C144.933 120.064 147.604 118.343 150.742 117.103L149.344 113.569C145.763 114.985 142.653 116.975 140.039 119.548L142.704 122.257ZM150.747 117.101C153.886 115.849 157.288 115.214 160.971 115.214V111.414C156.841 111.414 152.958 112.128 149.339 113.571L150.747 117.101ZM160.971 115.214C163.175 115.214 165.363 115.488 167.537 116.036L168.466 112.351C165.993 111.727 163.493 111.414 160.971 111.414V115.214ZM167.556 116.04C169.84 116.592 171.396 117.158 172.339 117.692L174.212 114.386C172.811 113.592 170.851 112.927 168.448 112.347L167.556 116.04ZM174.409 117.564L176.577 115.953L174.31 112.903L172.142 114.514L174.409 117.564ZM175.443 116.328H177.992V112.528H175.443V116.328ZM176.134 114.033L172.911 129.209L176.628 129.998L179.851 114.822L176.134 114.033ZM174.77 127.704H172.191V131.504H174.77V127.704ZM174.083 129.423C173.633 124.703 172.344 120.866 169.985 118.183L167.132 120.692C168.757 122.541 169.89 125.481 170.3 129.784L174.083 129.423ZM169.997 118.196C167.646 115.473 164.553 114.11 160.883 114.11V117.91C163.501 117.91 165.525 118.831 167.12 120.679L169.997 118.196ZM160.883 114.11C157.976 114.11 155.344 114.983 153.053 116.724L155.353 119.749C156.969 118.521 158.79 117.91 160.883 117.91V114.11ZM153.053 116.724C150.875 118.379 149.062 120.505 147.601 123.067L150.902 124.949C152.137 122.784 153.625 121.063 155.353 119.749L153.053 116.724ZM147.606 123.059C146.165 125.559 145.07 128.496 144.296 131.841L147.997 132.698C148.707 129.636 149.683 127.066 150.898 124.956L147.606 123.059ZM144.294 131.849C143.541 135.163 143.163 138.449 143.163 141.703H146.962C146.962 138.746 147.306 135.743 147.999 132.69L144.294 131.849ZM143.163 141.703C143.163 145.794 143.955 149.277 145.731 151.976L148.905 149.887C147.674 148.016 146.962 145.346 146.962 141.703H143.163ZM145.742 151.992C147.65 154.83 150.506 156.23 154.027 156.23V152.43C151.651 152.43 150.033 151.564 148.895 149.871L145.742 151.992ZM154.027 156.23C155.833 156.23 157.498 155.933 158.967 155.272L157.408 151.806C156.534 152.2 155.424 152.43 154.027 152.43V156.23ZM158.967 155.272C160.287 154.678 161.476 153.941 162.522 153.055L160.064 150.156C159.313 150.793 158.432 151.345 157.408 151.806L158.967 155.272ZM163.144 152.036L164.989 144.096L161.288 143.236L159.442 151.175L163.144 152.036ZM164.993 144.078C165.081 143.684 165.15 143.308 165.198 142.95L161.431 142.448C161.401 142.677 161.353 142.945 161.284 143.254L164.993 144.078ZM165.182 143.049C165.248 142.698 165.302 142.318 165.302 141.967H161.502C161.502 141.956 161.503 141.981 161.494 142.055C161.485 142.126 161.471 142.223 161.447 142.349L165.182 143.049ZM165.302 141.967C165.302 140.122 164.061 138.95 162.647 138.325L161.11 141.8C161.436 141.944 161.531 142.054 161.538 142.062C161.539 142.064 161.535 142.059 161.53 142.049C161.524 142.04 161.518 142.027 161.513 142.012C161.502 141.98 161.502 141.961 161.502 141.967H165.302ZM162.675 138.337C161.418 137.757 159.766 137.353 157.817 137.069L157.269 140.829C159.07 141.092 160.308 141.43 161.083 141.788L162.675 138.337ZM159.393 139.38L159.892 137.241L156.191 136.38L155.692 138.518L159.393 139.38ZM158.041 138.711H180.541V134.911H158.041V138.711ZM178.691 136.38L178.192 138.518L181.893 139.38L182.392 137.241L178.691 136.38ZM179.921 137.053C179.212 137.099 178.425 137.21 177.57 137.377L178.297 141.107C179.044 140.961 179.663 140.878 180.165 140.845L179.921 137.053ZM177.57 137.377C176.745 137.538 176.045 137.696 175.488 137.852L176.512 141.511C176.931 141.394 177.521 141.259 178.297 141.107L177.57 137.377ZM175.438 137.867C174.33 138.209 173.318 138.818 172.641 139.816L175.785 141.95C175.85 141.854 176.029 141.662 176.562 141.497L175.438 137.867ZM172.659 139.789C172.147 140.517 171.786 141.323 171.575 142.193L175.268 143.088C175.37 142.669 175.537 142.303 175.767 141.976L172.659 139.789ZM171.571 142.213L170.399 147.281L174.101 148.137L175.273 143.069L171.571 142.213ZM170.397 147.288C170.198 148.162 170.028 148.964 169.887 149.69L173.617 150.415C173.749 149.736 173.911 148.974 174.103 148.13L170.397 147.288ZM169.879 149.732C169.762 150.416 169.635 151.158 169.498 151.96L173.244 152.599C173.381 151.799 173.508 151.057 173.625 150.374L169.879 149.732ZM170.425 150.631C168.376 151.808 165.571 152.888 161.952 153.84L162.919 157.515C166.722 156.514 169.874 155.329 172.317 153.927L170.425 150.631ZM161.95 153.841C158.382 154.785 155.149 155.243 152.24 155.243V159.043C155.542 159.043 159.106 158.524 162.921 157.515L161.95 153.841ZM192.271 156L192.919 154.214L192.908 154.21L192.271 156ZM187.906 153.363L186.563 154.707L186.568 154.713L186.574 154.718L187.906 153.363ZM189.635 131.859L190.993 133.188L191.002 133.179L189.635 131.859ZM211.842 127.934L210.849 129.554L210.857 129.558L211.842 127.934ZM212.223 138.451L213.541 139.82L213.549 139.811L212.223 138.451ZM205.777 141.85L205.276 140.017L205.254 140.023L205.231 140.03L205.777 141.85ZM200.27 143.227L199.934 141.356L199.93 141.357L200.27 143.227ZM194.732 143.988L194.53 142.099L192.753 142.289L192.834 144.075L194.732 143.988ZM195.963 149.643L194.272 150.51L194.279 150.523L194.286 150.537L195.963 149.643ZM197.955 151.752L196.961 153.371L196.975 153.38L196.988 153.388L197.955 151.752ZM207.096 151.195L208.01 152.861L208.017 152.857L207.096 151.195ZM211.725 146.947L212.943 145.489L211.414 144.211L210.21 145.8L211.725 146.947ZM213.863 148.734L215.418 149.827L216.423 148.397L215.082 147.276L213.863 148.734ZM207.096 154.74L208.002 156.41L208.006 156.408L207.096 154.74ZM204.166 129.955L202.59 131.017L202.596 131.025L202.601 131.033L204.166 129.955ZM197.369 132.299L195.703 131.386L195.7 131.391L197.369 132.299ZM194.82 141.586L192.93 141.399L192.697 143.751L195.044 143.473L194.82 141.586ZM198.248 141.059L198.602 142.925L198.248 141.059ZM200.943 140.297L200.178 138.558L200.176 138.559L200.943 140.297ZM198.453 155.067C196.279 155.067 194.446 154.767 192.919 154.214L191.624 157.786C193.652 158.522 195.939 158.867 198.453 158.867V155.067ZM192.908 154.21C191.371 153.663 190.165 152.919 189.238 152.008L186.574 154.718C187.952 156.073 189.657 157.087 191.635 157.79L192.908 154.21ZM189.25 152.02C188.309 151.079 187.607 149.99 187.135 148.739L183.579 150.078C184.241 151.834 185.238 153.382 186.563 154.707L189.25 152.02ZM187.135 148.739C186.66 147.475 186.408 146.045 186.408 144.428H182.608C182.608 146.443 182.923 148.334 183.579 150.078L187.135 148.739ZM186.408 144.428C186.408 142.366 186.791 140.367 187.563 138.419L184.031 137.019C183.084 139.407 182.608 141.88 182.608 144.428H186.408ZM187.563 138.419C188.326 136.495 189.463 134.753 190.993 133.188L188.276 130.531C186.408 132.442 184.987 134.606 184.031 137.019L187.563 138.419ZM191.002 133.179C192.399 131.731 194.205 130.519 196.465 129.568L194.992 126.065C192.331 127.184 190.074 128.668 188.267 130.54L191.002 133.179ZM196.465 129.568C198.668 128.641 201.129 128.164 203.873 128.164V124.364C200.68 124.364 197.711 124.921 194.992 126.065L196.465 129.568ZM203.873 128.164C207.22 128.164 209.466 128.706 210.849 129.554L212.835 126.314C210.585 124.935 207.518 124.364 203.873 124.364V128.164ZM210.857 129.558C212.099 130.312 212.696 131.351 212.696 132.943H216.496C216.496 130.083 215.256 127.782 212.827 126.309L210.857 129.558ZM212.696 132.943C212.696 134.539 212.127 135.89 210.896 137.091L213.549 139.811C215.482 137.926 216.496 135.606 216.496 132.943H212.696ZM210.905 137.083C209.607 138.332 207.769 139.336 205.276 140.017L206.278 143.682C209.216 142.879 211.674 141.617 213.541 139.82L210.905 137.083ZM205.231 140.03C203.124 140.662 201.363 141.1 199.934 141.356L200.605 145.097C202.223 144.806 204.134 144.326 206.323 143.669L205.231 140.03ZM199.93 141.357C198.486 141.62 196.69 141.868 194.53 142.099L194.935 145.877C197.15 145.64 199.045 145.38 200.609 145.096L199.93 141.357ZM192.834 144.075C192.878 145.038 193.008 146.092 193.215 147.229L196.953 146.549C196.769 145.537 196.665 144.657 196.63 143.902L192.834 144.075ZM193.215 147.229C193.435 148.438 193.777 149.544 194.272 150.51L197.654 148.776C197.368 148.218 197.124 147.487 196.953 146.549L193.215 147.229ZM194.286 150.537C194.916 151.718 195.818 152.67 196.961 153.371L198.949 150.133C198.374 149.78 197.947 149.325 197.639 148.748L194.286 150.537ZM196.988 153.388C198.222 154.117 199.677 154.414 201.236 154.414V150.614C200.139 150.614 199.407 150.403 198.922 150.116L196.988 153.388ZM201.236 154.414C203.779 154.414 206.064 153.929 208.01 152.861L206.182 149.53C204.924 150.22 203.303 150.614 201.236 150.614V154.414ZM208.017 152.857C209.929 151.797 211.662 150.177 213.239 148.095L210.21 145.8C208.858 147.585 207.505 148.796 206.175 149.533L208.017 152.857ZM210.506 148.405L212.645 150.192L215.082 147.276L212.943 145.489L210.506 148.405ZM212.309 147.642C210.723 149.897 208.69 151.705 206.185 153.073L208.006 156.408C211.009 154.768 213.488 152.572 215.418 149.827L212.309 147.642ZM206.189 153.07C203.725 154.408 201.155 155.067 198.453 155.067V158.867C201.806 158.867 204.998 158.041 208.002 156.41L206.189 153.07ZM206.974 133.764C206.974 131.917 206.645 130.205 205.731 128.877L202.601 131.033C202.898 131.463 203.174 132.29 203.174 133.764H206.974ZM205.742 128.893C204.787 127.476 203.359 126.707 201.646 126.707V130.507C202.082 130.507 202.334 130.637 202.59 131.017L205.742 128.893ZM201.646 126.707C199.007 126.707 197.097 128.84 195.703 131.386L199.036 133.211C200.336 130.836 201.278 130.507 201.646 130.507V126.707ZM195.7 131.391C194.216 134.12 193.317 137.481 192.93 141.399L196.711 141.773C197.066 138.191 197.866 135.361 199.038 133.207L195.7 131.391ZM195.044 143.473C196.24 143.331 197.426 143.148 198.602 142.925L197.894 139.192C196.805 139.398 195.705 139.568 194.596 139.699L195.044 143.473ZM198.602 142.925C199.804 142.697 200.86 142.41 201.71 142.035L200.176 138.559C199.699 138.769 198.957 138.99 197.894 139.192L198.602 142.925ZM201.709 142.036C203.407 141.289 204.808 140.248 205.712 138.825L202.503 136.789C202.117 137.396 201.41 138.016 200.178 138.558L201.709 142.036ZM205.712 138.825C206.612 137.407 206.974 135.667 206.974 133.764H203.174C203.174 135.22 202.892 136.175 202.503 136.789L205.712 138.825ZM259.461 151.518L261.307 151.969L262.251 148.105L258.652 149.798L259.461 151.518ZM258.816 154.154L259.513 155.922L260.428 155.561L260.662 154.605L258.816 154.154ZM254.188 155.912L254.797 157.712L254.811 157.707L254.825 157.702L254.188 155.912ZM244.754 154.77L243.476 156.175L243.482 156.181L243.488 156.186L244.754 154.77ZM242.879 148.646L240.985 148.497L240.983 148.52L240.982 148.544L242.879 148.646ZM243.377 145.893L241.543 145.396L241.538 145.414L241.534 145.432L243.377 145.893ZM245.486 138.1L247.32 138.596L247.324 138.583L247.327 138.57L245.486 138.1ZM245.955 135.844L244.082 135.523L244.079 135.545L244.075 135.567L245.955 135.844ZM240.33 131.977L241.055 133.733L241.067 133.728L241.079 133.723L240.33 131.977ZM236.199 134.848L234.91 133.452L234.478 133.851L234.347 134.424L236.199 134.848ZM231.365 156V157.9H232.88L233.217 156.423L231.365 156ZM221.668 156L219.817 155.573L219.279 157.9H221.668V156ZM225.828 137.982L227.679 138.41L227.683 138.395L227.686 138.381L225.828 137.982ZM226.268 135.844L224.413 135.432L224.408 135.451L224.404 135.471L226.268 135.844ZM225.857 131.361L224.544 132.734L224.575 132.763L224.606 132.791L225.857 131.361ZM221.434 131.01L220.897 129.187L220.89 129.189L220.883 129.191L221.434 131.01ZM219.764 131.566L217.918 131.115L217.064 134.608L220.431 133.345L219.764 131.566ZM220.408 128.93L219.691 127.17L218.793 127.536L218.563 128.479L220.408 128.93ZM224.949 127.289L225.513 129.103L225.524 129.1L225.535 129.096L224.949 127.289ZM234.207 127.963L233.011 129.439L233.025 129.45L233.039 129.461L234.207 127.963ZM236.492 131.771L234.639 132.191L234.974 133.671H236.492V131.771ZM236.697 131.771V133.671H237.431L237.975 133.178L236.697 131.771ZM242.615 127.729L243.425 129.447L243.432 129.444L242.615 127.729ZM254.217 128.051L252.884 129.405L252.89 129.41L252.895 129.416L254.217 128.051ZM255.945 134.291L254.054 134.111L254.052 134.132L254.05 134.152L255.945 134.291ZM255.477 136.869L253.645 136.363L253.642 136.373L255.477 136.869ZM253.25 145.102L255.077 145.624L255.081 145.611L255.084 145.598L253.25 145.102ZM253.221 151.752L251.999 153.207L252.013 153.219L252.027 153.23L253.221 151.752ZM257.85 152.074L258.333 153.912L258.356 153.906L258.378 153.899L257.85 152.074ZM257.615 151.066L256.971 153.703L260.662 154.605L261.307 151.969L257.615 151.066ZM258.12 152.387C256.195 153.145 254.674 153.722 253.55 154.122L254.825 157.702C256.006 157.282 257.571 156.687 259.513 155.922L258.12 152.387ZM253.578 154.113C252.664 154.422 251.54 154.598 250.174 154.598V158.398C251.855 158.398 253.406 158.183 254.797 157.712L253.578 154.113ZM250.174 154.598C248.154 154.598 246.856 154.1 246.02 153.353L243.488 156.186C245.23 157.743 247.545 158.398 250.174 158.398V154.598ZM246.032 153.364C245.133 152.546 244.72 151.609 244.72 150.434H240.92C240.92 152.696 241.797 154.649 243.476 156.175L246.032 153.364ZM244.72 150.434C244.72 150.012 244.738 149.454 244.776 148.749L240.982 148.544C240.942 149.285 240.92 149.918 240.92 150.434H244.72ZM244.773 148.796C244.82 148.198 244.961 147.391 245.22 146.353L241.534 145.432C241.246 146.581 241.055 147.611 240.985 148.497L244.773 148.796ZM245.211 146.389L247.32 138.596L243.652 137.603L241.543 145.396L245.211 146.389ZM247.327 138.57C247.554 137.684 247.725 136.865 247.835 136.12L244.075 135.567C243.99 136.15 243.848 136.836 243.646 137.629L247.327 138.57ZM247.828 136.165C247.954 135.431 248.031 134.756 248.031 134.174H244.231C244.231 134.451 244.191 134.889 244.082 135.523L247.828 136.165ZM248.031 134.174C248.031 132.945 247.735 131.72 246.903 130.744L244.011 133.209C244.078 133.287 244.231 133.528 244.231 134.174H248.031ZM246.903 130.744C245.933 129.605 244.496 129.286 243.172 129.286V133.086C243.996 133.086 244.083 133.293 244.011 133.209L246.903 130.744ZM243.172 129.286C242.102 129.286 240.857 129.684 239.582 130.23L241.079 133.723C242.264 133.215 242.914 133.086 243.172 133.086V129.286ZM239.605 130.22C238.084 130.848 236.517 131.968 234.91 133.452L237.488 136.244C238.928 134.915 240.115 134.121 241.055 133.733L239.605 130.22ZM234.347 134.424L229.513 155.577L233.217 156.423L238.051 135.271L234.347 134.424ZM231.365 154.1H221.668V157.9H231.365V154.1ZM223.519 156.427L227.679 138.41L223.977 137.555L219.817 155.573L223.519 156.427ZM227.686 138.381C227.806 137.822 227.954 137.099 228.131 136.216L224.404 135.471C224.23 136.346 224.085 137.049 223.97 137.584L227.686 138.381ZM228.122 136.256C228.334 135.306 228.461 134.424 228.461 133.646H224.661C224.661 134.041 224.592 134.624 224.413 135.432L228.122 136.256ZM228.461 133.646C228.461 132.389 228.218 130.903 227.109 129.931L224.606 132.791C224.51 132.707 224.527 132.662 224.569 132.799C224.613 132.943 224.661 133.21 224.661 133.646H228.461ZM227.171 129.988C226.156 129.018 224.662 128.817 223.367 128.817V132.617C223.872 132.617 224.212 132.663 224.422 132.717C224.636 132.773 224.626 132.813 224.544 132.734L227.171 129.988ZM223.367 128.817C222.542 128.817 221.717 128.946 220.897 129.187L221.97 132.833C222.478 132.683 222.942 132.617 223.367 132.617V128.817ZM220.883 129.191C220.211 129.395 219.614 129.593 219.097 129.787L220.431 133.345C220.851 133.188 221.367 133.015 221.985 132.828L220.883 129.191ZM221.609 132.018L222.254 129.381L218.563 128.479L217.918 131.115L221.609 132.018ZM221.125 130.689C222.663 130.063 224.126 129.535 225.513 129.103L224.385 125.475C222.882 125.942 221.317 126.508 219.691 127.17L221.125 130.689ZM225.535 129.096C226.824 128.678 227.993 128.486 229.051 128.486V124.686C227.531 124.686 225.965 124.962 224.363 125.482L225.535 129.096ZM229.051 128.486C231.158 128.486 232.364 128.915 233.011 129.439L235.403 126.487C233.785 125.175 231.553 124.686 229.051 124.686V128.486ZM233.039 129.461C233.794 130.05 234.349 130.91 234.639 132.191L238.345 131.352C237.893 129.352 236.925 127.673 235.375 126.464L233.039 129.461ZM236.492 133.671H236.697V129.871H236.492V133.671ZM237.975 133.178C239.77 131.548 241.588 130.313 243.425 129.447L241.805 126.01C239.58 127.058 237.453 128.519 235.42 130.365L237.975 133.178ZM243.432 129.444C245.224 128.591 247.122 128.164 249.148 128.164V124.364C246.565 124.364 244.108 124.913 241.798 126.013L243.432 129.444ZM249.148 128.164C250.962 128.164 252.12 128.653 252.884 129.405L255.549 126.696C253.892 125.066 251.671 124.364 249.148 124.364V128.164ZM252.895 129.416C253.759 130.252 254.163 131.207 254.163 132.387H257.962C257.962 130.168 257.135 128.232 255.538 126.686L252.895 129.416ZM254.163 132.387C254.163 132.746 254.13 133.31 254.054 134.111L257.837 134.471C257.917 133.631 257.962 132.926 257.962 132.387H254.163ZM254.05 134.152C254.002 134.808 253.872 135.543 253.645 136.363L257.308 137.376C257.589 136.359 257.771 135.375 257.84 134.43L254.05 134.152ZM253.642 136.373L251.416 144.606L255.084 145.598L257.311 137.365L253.642 136.373ZM251.423 144.58C251.206 145.339 251.017 146.185 250.852 147.113L254.593 147.778C254.741 146.947 254.903 146.231 255.077 145.624L251.423 144.58ZM250.852 147.113C250.691 148.016 250.588 148.815 250.588 149.438H254.388C254.388 149.162 254.441 148.632 254.593 147.778L250.852 147.113ZM250.588 149.438C250.588 150.72 250.843 152.236 251.999 153.207L254.443 150.297C254.54 150.379 254.525 150.426 254.483 150.292C254.438 150.15 254.388 149.881 254.388 149.438H250.588ZM252.027 153.23C253.067 154.07 254.516 154.267 255.857 154.267V150.467C255.327 150.467 254.948 150.423 254.692 150.363C254.431 150.302 254.377 150.244 254.415 150.274L252.027 153.23ZM255.857 154.267C256.648 154.267 257.479 154.136 258.333 153.912L257.366 150.237C256.736 150.403 256.239 150.467 255.857 150.467V154.267ZM258.378 153.899C259.135 153.68 259.794 153.461 260.27 153.237L258.652 149.798C258.464 149.887 258.048 150.039 257.321 150.249L258.378 153.899ZM295.361 134.906L297.176 135.468L295.361 134.906ZM294.219 137.016L292.783 135.771L292.778 135.777L292.773 135.783L294.219 137.016ZM292.432 138.51L293.281 140.209L293.302 140.199L293.323 140.188L292.432 138.51ZM285.43 133.295L283.678 132.56L283.667 132.584L283.658 132.609L285.43 133.295ZM286.602 130.541L288.348 131.289L290.195 126.98L285.869 128.788L286.602 130.541ZM283.232 132.562L284.449 134.022L284.458 134.015L284.466 134.007L283.232 132.562ZM280.537 135.258L279.087 134.031L278.785 134.388L278.683 134.844L280.537 135.258ZM275.908 156V157.9H277.431L277.763 156.414L275.908 156ZM266.211 156L264.357 155.584L263.837 157.9H266.211V156ZM270.254 137.982L272.108 138.398L272.11 138.389L272.112 138.381L270.254 137.982ZM270.693 135.844L268.839 135.432L268.834 135.451L268.83 135.471L270.693 135.844ZM270.312 131.332L269.001 132.706L269.016 132.721L269.031 132.735L270.312 131.332ZM265.859 131.01L265.323 129.187L265.316 129.189L265.308 129.191L265.859 131.01ZM264.189 131.566L262.344 131.115L261.49 134.608L264.857 133.345L264.189 131.566ZM264.834 128.93L264.117 127.17L263.219 127.536L262.988 128.479L264.834 128.93ZM269.375 127.289L269.939 129.103L269.95 129.1L269.961 129.096L269.375 127.289ZM278.633 127.963L277.437 129.439L277.45 129.45L277.465 129.461L278.633 127.963ZM280.918 131.771L279.065 132.191L279.4 133.671H280.918V131.771ZM281.123 131.771V133.671H281.943L282.505 133.075L281.123 131.771ZM286.045 127.494L287.015 129.128L287.024 129.122L287.033 129.117L286.045 127.494ZM294.307 127.846L292.9 129.122L292.906 129.129L292.912 129.136L294.307 127.846ZM293.842 132.357C293.842 133.05 293.743 133.71 293.546 134.344L297.176 135.468C297.488 134.462 297.642 133.422 297.642 132.357H293.842ZM293.546 134.344C293.362 134.941 293.101 135.405 292.783 135.771L295.655 138.26C296.352 137.455 296.853 136.513 297.176 135.468L293.546 134.344ZM292.773 135.783C292.327 136.306 291.911 136.635 291.54 136.832L293.323 140.188C294.202 139.721 294.978 139.053 295.664 138.249L292.773 135.783ZM291.582 136.81C291.335 136.934 290.795 137.079 289.795 137.079V140.879C291.06 140.879 292.278 140.711 293.281 140.209L291.582 136.81ZM289.795 137.079C288.636 137.079 287.974 136.796 287.577 136.454L285.099 139.335C286.381 140.438 288.024 140.879 289.795 140.879V137.079ZM287.577 136.454C287.05 136.001 286.978 135.682 286.978 135.463H283.178C283.178 137.041 283.946 138.343 285.099 139.335L287.577 136.454ZM286.978 135.463C286.978 134.792 287.073 134.314 287.202 133.981L283.658 132.609C283.318 133.487 283.178 134.454 283.178 135.463H286.978ZM287.182 134.03C287.433 133.431 287.821 132.519 288.348 131.289L284.855 129.793C284.327 131.024 283.934 131.948 283.678 132.56L287.182 134.03ZM285.869 128.788C284.405 129.4 283.107 130.171 281.998 131.118L284.466 134.007C285.233 133.352 286.181 132.776 287.334 132.294L285.869 128.788ZM282.016 131.103C280.987 131.961 280.011 132.938 279.087 134.031L281.988 136.485C282.782 135.546 283.603 134.727 284.449 134.022L282.016 131.103ZM278.683 134.844L274.054 155.586L277.763 156.414L282.391 135.672L278.683 134.844ZM275.908 154.1H266.211V157.9H275.908V154.1ZM268.065 156.416L272.108 138.398L268.4 137.566L264.357 155.584L268.065 156.416ZM272.112 138.381C272.231 137.822 272.38 137.099 272.556 136.216L268.83 135.471C268.655 136.346 268.511 137.049 268.396 137.584L272.112 138.381ZM272.548 136.256C272.759 135.306 272.886 134.424 272.886 133.646H269.086C269.086 134.041 269.018 134.624 268.839 135.432L272.548 136.256ZM272.886 133.646C272.886 132.399 272.666 130.908 271.594 129.929L269.031 132.735C268.928 132.641 268.948 132.594 268.994 132.749C269.04 132.908 269.086 133.192 269.086 133.646H272.886ZM271.624 129.958C271.083 129.441 270.416 129.173 269.811 129.025C269.194 128.874 268.509 128.817 267.793 128.817V132.617C268.327 132.617 268.687 132.662 268.91 132.716C269.144 132.774 269.112 132.813 269.001 132.706L271.624 129.958ZM267.793 128.817C266.968 128.817 266.143 128.946 265.323 129.187L266.395 132.833C266.904 132.683 267.368 132.617 267.793 132.617V128.817ZM265.308 129.191C264.637 129.395 264.04 129.593 263.522 129.787L264.857 133.345C265.277 133.188 265.793 133.015 266.41 132.828L265.308 129.191ZM266.035 132.018L266.68 129.381L262.988 128.479L262.344 131.115L266.035 132.018ZM265.551 130.689C267.089 130.063 268.551 129.535 269.939 129.103L268.811 125.475C267.308 125.942 265.743 126.508 264.117 127.17L265.551 130.689ZM269.961 129.096C271.25 128.678 272.418 128.486 273.477 128.486V124.686C271.957 124.686 270.391 124.962 268.789 125.482L269.961 129.096ZM273.477 128.486C275.583 128.486 276.789 128.915 277.437 129.439L279.829 126.487C278.211 125.175 275.979 124.686 273.477 124.686V128.486ZM277.465 129.461C278.219 130.05 278.775 130.91 279.065 132.191L282.771 131.352C282.319 129.352 281.351 127.673 279.801 126.464L277.465 129.461ZM280.918 133.671H281.123V129.871H280.918V133.671ZM282.505 133.075C284.398 131.068 285.895 129.793 287.015 129.128L285.074 125.861C283.499 126.797 281.715 128.374 279.741 130.468L282.505 133.075ZM287.033 129.117C288.09 128.474 289.195 128.164 290.381 128.164V124.364C288.481 124.364 286.695 124.874 285.057 125.871L287.033 129.117ZM290.381 128.164C291.603 128.164 292.363 128.532 292.9 129.122L295.714 126.569C294.336 125.051 292.48 124.364 290.381 124.364V128.164ZM292.912 129.136C293.434 129.701 293.842 130.671 293.842 132.357H297.642C297.642 130.098 297.093 128.061 295.702 126.556L292.912 129.136ZM308.205 156L308.853 154.214L308.842 154.21L308.205 156ZM303.84 153.363L302.496 154.707L302.502 154.713L302.508 154.718L303.84 153.363ZM305.568 131.859L306.927 133.188L306.936 133.179L305.568 131.859ZM327.775 127.934L326.783 129.554L326.79 129.558L327.775 127.934ZM328.156 138.451L329.474 139.82L329.483 139.811L328.156 138.451ZM321.711 141.85L321.21 140.017L321.187 140.023L321.165 140.03L321.711 141.85ZM316.203 143.227L315.867 141.356L315.863 141.357L316.203 143.227ZM310.666 143.988L310.464 142.099L308.687 142.289L308.768 144.075L310.666 143.988ZM311.896 149.643L310.206 150.51L310.213 150.523L310.22 150.537L311.896 149.643ZM313.889 151.752L312.895 153.371L312.908 153.38L312.922 153.388L313.889 151.752ZM323.029 151.195L323.943 152.861L323.95 152.857L323.029 151.195ZM327.658 146.947L328.877 145.489L327.347 144.211L326.144 145.8L327.658 146.947ZM329.797 148.734L331.351 149.827L332.357 148.397L331.015 147.276L329.797 148.734ZM323.029 154.74L323.936 156.41L323.94 156.408L323.029 154.74ZM320.1 129.955L318.524 131.017L318.529 131.025L318.535 131.033L320.1 129.955ZM313.303 132.299L311.636 131.386L311.634 131.391L313.303 132.299ZM310.754 141.586L308.863 141.399L308.63 143.751L310.978 143.473L310.754 141.586ZM314.182 141.059L314.536 142.925L314.182 141.059ZM316.877 140.297L316.112 138.558L316.11 138.559L316.877 140.297ZM314.387 155.067C312.213 155.067 310.379 154.767 308.853 154.214L307.557 157.786C309.585 158.522 311.873 158.867 314.387 158.867V155.067ZM308.842 154.21C307.304 153.663 306.099 152.919 305.172 152.008L302.508 154.718C303.886 156.073 305.59 157.087 307.569 157.79L308.842 154.21ZM305.183 152.02C304.242 151.079 303.541 149.99 303.069 148.739L299.513 150.078C300.174 151.834 301.172 153.382 302.496 154.707L305.183 152.02ZM303.069 148.739C302.593 147.475 302.341 146.045 302.341 144.428H298.541C298.541 146.443 298.856 148.334 299.513 150.078L303.069 148.739ZM302.341 144.428C302.341 142.366 302.725 140.367 303.497 138.419L299.964 137.019C299.018 139.407 298.541 141.88 298.541 144.428H302.341ZM303.497 138.419C304.259 136.495 305.396 134.753 306.927 133.188L304.21 130.531C302.342 132.442 300.92 134.606 299.964 137.019L303.497 138.419ZM306.936 133.179C308.333 131.731 310.138 130.519 312.399 129.568L310.925 126.065C308.264 127.184 306.007 128.668 304.201 130.54L306.936 133.179ZM312.399 129.568C314.602 128.641 317.063 128.164 319.807 128.164V124.364C316.613 124.364 313.644 124.921 310.925 126.065L312.399 129.568ZM319.807 128.164C323.154 128.164 325.4 128.706 326.783 129.554L328.768 126.314C326.518 124.935 323.452 124.364 319.807 124.364V128.164ZM326.79 129.558C328.033 130.312 328.629 131.351 328.629 132.943H332.429C332.429 130.083 331.19 127.782 328.761 126.309L326.79 129.558ZM328.629 132.943C328.629 134.539 328.061 135.89 326.83 137.091L329.483 139.811C331.416 137.926 332.429 135.606 332.429 132.943H328.629ZM326.838 137.083C325.541 138.332 323.702 139.336 321.21 140.017L322.212 143.682C325.149 142.879 327.607 141.617 329.474 139.82L326.838 137.083ZM321.165 140.03C319.058 140.662 317.296 141.1 315.867 141.356L316.539 145.097C318.157 144.806 320.067 144.326 322.257 143.669L321.165 140.03ZM315.863 141.357C314.42 141.62 312.623 141.868 310.464 142.099L310.868 145.877C313.084 145.64 314.979 145.38 316.543 145.096L315.863 141.357ZM308.768 144.075C308.812 145.038 308.942 146.092 309.148 147.229L312.887 146.549C312.703 145.537 312.598 144.657 312.564 143.902L308.768 144.075ZM309.148 147.229C309.368 148.438 309.71 149.544 310.206 150.51L313.587 148.776C313.301 148.218 313.058 147.487 312.887 146.549L309.148 147.229ZM310.22 150.537C310.85 151.718 311.751 152.67 312.895 153.371L314.882 150.133C314.307 149.78 313.881 149.325 313.573 148.748L310.22 150.537ZM312.922 153.388C314.156 154.117 315.611 154.414 317.17 154.414V150.614C316.073 150.614 315.34 150.403 314.855 150.116L312.922 153.388ZM317.17 154.414C319.712 154.414 321.998 153.929 323.943 152.861L322.115 149.53C320.858 150.22 319.237 150.614 317.17 150.614V154.414ZM323.95 152.857C325.863 151.797 327.595 150.177 329.173 148.095L326.144 145.8C324.792 147.585 323.438 148.796 322.108 149.533L323.95 152.857ZM326.44 148.405L328.579 150.192L331.015 147.276L328.877 145.489L326.44 148.405ZM328.243 147.642C326.657 149.897 324.624 151.705 322.119 153.073L323.94 156.408C326.943 154.768 329.421 152.572 331.351 149.827L328.243 147.642ZM322.123 153.07C319.659 154.408 317.088 155.067 314.387 155.067V158.867C317.74 158.867 320.931 158.041 323.936 156.41L322.123 153.07ZM322.908 133.764C322.908 131.917 322.579 130.205 321.664 128.877L318.535 131.033C318.831 131.463 319.108 132.29 319.108 133.764H322.908ZM321.675 128.893C320.72 127.476 319.293 126.707 317.58 126.707V130.507C318.016 130.507 318.268 130.637 318.524 131.017L321.675 128.893ZM317.58 126.707C314.941 126.707 313.031 128.84 311.636 131.386L314.969 133.211C316.27 130.836 317.211 130.507 317.58 130.507V126.707ZM311.634 131.391C310.149 134.12 309.251 137.481 308.863 141.399L312.645 141.773C312.999 138.191 313.8 135.361 314.972 133.207L311.634 131.391ZM310.978 143.473C312.173 143.331 313.359 143.148 314.536 142.925L313.828 139.192C312.738 139.398 311.639 139.568 310.53 139.699L310.978 143.473ZM314.536 142.925C315.738 142.697 316.794 142.41 317.644 142.035L316.11 138.559C315.632 138.769 314.891 138.99 313.828 139.192L314.536 142.925ZM317.642 142.036C319.34 141.289 320.742 140.248 321.645 138.825L318.437 136.789C318.051 137.396 317.343 138.016 316.112 138.558L317.642 142.036ZM321.645 138.825C322.545 137.407 322.908 135.667 322.908 133.764H319.108C319.108 135.22 318.826 136.175 318.437 136.789L321.645 138.825ZM341.469 156.352L341.935 154.51L341.927 154.508L341.919 154.506L341.469 156.352ZM337.66 154.828L338.714 153.247L338.707 153.242L338.699 153.237L337.66 154.828ZM335.697 152.836L333.989 153.667L333.993 153.676L333.998 153.686L335.697 152.836ZM342.758 147.475L341.594 148.976L341.603 148.983L341.612 148.99L342.758 147.475ZM344.75 149.76L343.102 150.706L343.107 150.715L344.75 149.76ZM346.684 154.799L344.854 155.311L345.243 156.699H346.684V154.799ZM351.693 153.393L352.905 154.856L352.912 154.85L352.92 154.844L351.693 153.393ZM352.865 147.68L351.294 148.748L351.308 148.769L351.323 148.79L352.865 147.68ZM351.518 146.391L352.559 144.801L352.539 144.789L352.52 144.776L351.518 146.391ZM346.742 144.428L347.355 142.629L347.352 142.628L346.742 144.428ZM341.117 141.117L339.746 142.432L339.755 142.442L339.764 142.451L341.117 141.117ZM339.916 132.299L338.235 131.414L338.229 131.425L339.916 132.299ZM342.641 129.223L341.509 127.697L341.499 127.704L341.489 127.711L342.641 129.223ZM347.24 127.084L347.76 128.912L347.769 128.909L347.777 128.906L347.24 127.084ZM361.42 127.494L362.204 125.763L362.186 125.755L362.168 125.748L361.42 127.494ZM363.822 129.34L362.298 130.474L362.314 130.496L362.331 130.517L363.822 129.34ZM363.471 134.848L364.78 136.224L364.781 136.224L363.471 134.848ZM357.465 135.111L356.288 136.603L356.297 136.61L356.306 136.617L357.465 135.111ZM355.648 133.031L353.999 133.974L354.004 133.983L354.009 133.991L355.648 133.031ZM354.535 130.512L352.721 131.076L352.725 131.088L354.535 130.512ZM353.861 128.314L355.681 127.768L355.25 126.332L353.753 126.418L353.861 128.314ZM350.111 129.809L351.305 131.287L351.308 131.285L350.111 129.809ZM348.822 135.111L347.152 136.016L347.166 136.043L347.181 136.069L348.822 135.111ZM349.906 136.283L348.821 137.843L348.825 137.845L349.906 136.283ZM351.811 137.279L351.089 139.037L351.116 139.048L351.143 139.058L351.811 137.279ZM354.711 138.305L355.343 136.513L355.332 136.509L355.321 136.505L354.711 138.305ZM360.717 141.674L362.04 140.311L360.717 141.674ZM361.742 150.902L360.053 150.032L360.048 150.042L360.043 150.053L361.742 150.902ZM358.959 154.125L360.044 155.685L360.051 155.68L360.059 155.674L358.959 154.125ZM354.301 156.234L353.811 154.399L353.802 154.401L353.792 154.404L354.301 156.234ZM347.592 155.067C345.222 155.067 343.35 154.868 341.935 154.51L341.003 158.194C342.829 158.656 345.04 158.867 347.592 158.867V155.067ZM341.919 154.506C340.442 154.145 339.403 153.707 338.714 153.247L336.606 156.409C337.792 157.2 339.292 157.776 341.019 158.197L341.919 154.506ZM338.699 153.237C337.904 152.718 337.544 152.282 337.397 151.986L333.998 153.686C334.553 154.797 335.502 155.688 336.621 156.419L338.699 153.237ZM337.406 152.005C337.145 151.47 337.07 151.081 337.07 150.814H333.27C333.27 151.798 333.546 152.757 333.989 153.667L337.406 152.005ZM337.07 150.814C337.07 150.212 337.27 149.702 337.773 149.199L335.086 146.512C333.909 147.689 333.27 149.151 333.27 150.814H337.07ZM337.773 149.199C338.22 148.752 338.84 148.466 339.828 148.466V144.666C338.004 144.666 336.358 145.24 335.086 146.512L337.773 149.199ZM339.828 148.466C340.66 148.466 341.205 148.675 341.594 148.976L343.922 145.973C342.749 145.064 341.34 144.666 339.828 144.666V148.466ZM341.612 148.99C342.198 149.433 342.695 149.997 343.102 150.706L346.398 148.813C345.75 147.686 344.919 146.727 343.904 145.959L341.612 148.99ZM343.107 150.715C343.522 151.428 343.88 152.232 344.175 153.133L347.786 151.953C347.417 150.822 346.954 149.771 346.393 148.805L343.107 150.715ZM344.175 153.133C344.505 154.145 344.729 154.864 344.854 155.311L348.513 154.287C348.365 153.757 348.12 152.972 347.786 151.953L344.175 153.133ZM346.684 156.699C349.12 156.699 351.297 156.187 352.905 154.856L350.482 151.929C349.824 152.473 348.661 152.899 346.684 152.899V156.699ZM352.92 154.844C354.528 153.485 355.293 151.629 355.293 149.496H351.493C351.493 150.644 351.124 151.386 350.467 151.941L352.92 154.844ZM355.293 149.496C355.293 148.457 355.035 147.442 354.407 146.57L351.323 148.79C351.398 148.894 351.493 149.09 351.493 149.496H355.293ZM354.436 146.611C353.945 145.888 353.304 145.29 352.559 144.801L350.476 147.98C350.864 148.234 351.122 148.495 351.294 148.748L354.436 146.611ZM352.52 144.776C351.816 144.339 350.972 143.947 350.021 143.588L348.678 147.143C349.485 147.447 350.087 147.739 350.516 148.005L352.52 144.776ZM350.021 143.588C349.123 143.249 348.235 142.929 347.355 142.629L346.129 146.226C346.968 146.512 347.818 146.818 348.678 147.143L350.021 143.588ZM347.352 142.628C345.197 141.898 343.601 140.93 342.47 139.783L339.764 142.451C341.407 144.117 343.561 145.356 346.132 146.227L347.352 142.628ZM342.489 139.802C341.485 138.756 340.966 137.47 340.966 135.814H337.166C337.166 138.377 338.015 140.627 339.746 142.432L342.489 139.802ZM340.966 135.814C340.966 134.864 341.179 133.992 341.603 133.173L338.229 131.425C337.52 132.793 337.166 134.265 337.166 135.814H340.966ZM341.597 133.184C342.028 132.365 342.732 131.541 343.792 130.734L341.489 127.711C340.088 128.779 338.976 130.006 338.235 131.414L341.597 133.184ZM343.773 130.749C344.756 130.019 346.066 129.393 347.76 128.912L346.721 125.256C344.703 125.83 342.947 126.629 341.509 127.697L343.773 130.749ZM347.777 128.906C349.417 128.423 351.397 128.164 353.744 128.164V124.364C351.13 124.364 348.774 124.651 346.703 125.261L347.777 128.906ZM353.744 128.164C355.155 128.164 356.443 128.247 357.614 128.409L358.136 124.645C356.767 124.456 355.302 124.364 353.744 124.364V128.164ZM357.614 128.409C358.729 128.564 359.745 128.843 360.671 129.241L362.168 125.748C360.907 125.207 359.56 124.843 358.136 124.645L357.614 128.409ZM360.636 129.225C361.435 129.587 361.958 130.017 362.298 130.474L365.347 128.206C364.554 127.139 363.475 126.339 362.204 125.763L360.636 129.225ZM362.331 130.517C362.617 130.879 362.801 131.356 362.801 132.064H366.601C366.601 130.624 366.2 129.285 365.314 128.163L362.331 130.517ZM362.801 132.064C362.801 132.588 362.627 133.027 362.16 133.472L364.781 136.224C365.955 135.106 366.601 133.69 366.601 132.064H362.801ZM362.161 133.471C361.777 133.836 361.223 134.09 360.307 134.09V137.89C362.007 137.89 363.562 137.383 364.78 136.224L362.161 133.471ZM360.307 134.09C359.515 134.09 358.996 133.892 358.623 133.605L356.306 136.617C357.457 137.502 358.833 137.89 360.307 137.89V134.09ZM358.642 133.62C358.082 133.178 357.635 132.664 357.288 132.071L354.009 133.991C354.599 135 355.363 135.873 356.288 136.603L358.642 133.62ZM357.298 132.089C356.893 131.379 356.577 130.662 356.346 129.936L352.725 131.088C353.04 132.081 353.467 133.043 353.999 133.974L357.298 132.089ZM356.349 129.947C356.077 129.072 355.854 128.346 355.681 127.768L352.041 128.86C352.22 129.455 352.446 130.194 352.721 131.076L356.349 129.947ZM353.753 126.418C351.962 126.52 350.336 127.181 348.915 128.332L351.308 131.285C352.152 130.6 353.027 130.265 353.97 130.211L353.753 126.418ZM348.918 128.33C347.389 129.564 346.541 131.216 346.541 133.178H350.341C350.341 132.444 350.607 131.85 351.305 131.287L348.918 128.33ZM346.541 133.178C346.541 134.159 346.687 135.159 347.152 136.016L350.493 134.206C350.449 134.126 350.341 133.837 350.341 133.178H346.541ZM347.181 136.069C347.595 136.778 348.147 137.374 348.821 137.843L350.991 134.723C350.767 134.568 350.596 134.382 350.463 134.154L347.181 136.069ZM348.825 137.845C349.475 138.296 350.24 138.689 351.089 139.037L352.532 135.521C351.858 135.245 351.353 134.974 350.988 134.721L348.825 137.845ZM351.143 139.058C351.95 139.361 352.937 139.71 354.101 140.104L355.321 136.505C354.18 136.118 353.234 135.784 352.478 135.5L351.143 139.058ZM354.079 140.096C356.594 140.984 358.316 141.991 359.393 143.037L362.04 140.311C360.423 138.74 358.141 137.5 355.343 136.513L354.079 140.096ZM359.393 143.037C360.318 143.935 360.838 145.144 360.838 146.859H364.638C364.638 144.278 363.811 142.03 362.04 140.311L359.393 143.037ZM360.838 146.859C360.838 147.953 360.583 149.004 360.053 150.032L363.431 151.772C364.229 150.223 364.638 148.578 364.638 146.859H360.838ZM360.043 150.053C359.542 151.054 358.824 151.891 357.859 152.576L360.059 155.674C361.516 154.64 362.653 153.329 363.442 151.752L360.043 150.053ZM357.874 152.565C356.726 153.364 355.379 153.98 353.811 154.399L354.79 158.07C356.738 157.551 358.497 156.761 360.044 155.685L357.874 152.565ZM353.792 154.404C352.259 154.829 350.21 155.067 347.592 155.067V158.867C350.403 158.867 352.827 158.616 354.809 158.065L353.792 154.404Z" fill="black"/>
<defs>
<linearGradient id="paint0_linear" x1="69.7926" y1="134" x2="409.756" y2="134" gradientUnits="userSpaceOnUse">
<stop stop-color="#B689F2"/>
<stop offset="1" stop-color="white" stop-opacity="0"/>
</linearGradient>
<linearGradient id="paint1_linear" x1="35.5" y1="71.5" x2="180.5" y2="71.5" gradientUnits="userSpaceOnUse">
<stop stop-color="#9B90F3"/>
<stop offset="1" stop-color="#6BA7E0"/>
</linearGradient>
<linearGradient id="paint2_linear" x1="55.5" y1="122.25" x2="200.5" y2="122.25" gradientUnits="userSpaceOnUse">
<stop stop-color="#9697F1"/>
<stop offset="0.666372" stop-color="#6BA7E0"/>
</linearGradient>
<linearGradient id="paint3_linear" x1="145.086" y1="159.125" x2="178.883" y2="159.125" gradientUnits="userSpaceOnUse">
<stop stop-color="#6CA1E1"/>
<stop offset="0.666372" stop-color="#6BA7E0"/>
</linearGradient>
<linearGradient id="paint4_linear" x1="70.3797" y1="180.875" x2="193.575" y2="180.875" gradientUnits="userSpaceOnUse">
<stop stop-color="#939FEF"/>
<stop offset="0.666372" stop-color="#6BA7E0"/>
</linearGradient>
<linearGradient id="paint5_linear" x1="133.053" y1="53.25" x2="178.842" y2="53.25" gradientUnits="userSpaceOnUse">
<stop stop-color="#939FEF"/>
<stop offset="0.666372" stop-color="#6BA7E0"/>
</linearGradient>
<linearGradient id="paint6_linear" x1="113.797" y1="102" x2="185.752" y2="102" gradientUnits="userSpaceOnUse">
<stop stop-color="#9B90F3"/>
<stop offset="0.328555" stop-color="#6BA7E0"/>
</linearGradient>
<linearGradient id="paint7_linear" x1="248.5" y1="77.125" x2="358" y2="77.125" gradientUnits="userSpaceOnUse">
<stop offset="0.124424" stop-color="#55F9D0"/>
<stop offset="1" stop-color="#58FDD0"/>
</linearGradient>
<linearGradient id="paint8_linear" x1="256.811" y1="99.625" x2="294" y2="99.625" gradientUnits="userSpaceOnUse">
<stop offset="0.124424" stop-color="#55F9D0"/>
<stop offset="1" stop-color="#58FDD0"/>
</linearGradient>
<linearGradient id="paint9_linear" x1="249.774" y1="119.5" x2="382" y2="119.5" gradientUnits="userSpaceOnUse">
<stop offset="0.124424" stop-color="#55F9D0"/>
<stop offset="1" stop-color="#58FDD0"/>
</linearGradient>
<linearGradient id="paint10_linear" x1="239.594" y1="149" x2="440" y2="149" gradientUnits="userSpaceOnUse">
<stop offset="0.124424" stop-color="#55F9D0"/>
<stop offset="1" stop-color="#58FDD0"/>
</linearGradient>
<linearGradient id="paint11_linear" x1="259.863" y1="176.875" x2="358" y2="176.875" gradientUnits="userSpaceOnUse">
<stop offset="0.124424" stop-color="#55F9D0"/>
<stop offset="1" stop-color="#58FDD0"/>
</linearGradient>
<linearGradient id="paint12_linear" x1="240.09" y1="193.875" x2="425" y2="193.875" gradientUnits="userSpaceOnUse">
<stop offset="0.124424" stop-color="#55F9D0"/>
<stop offset="1" stop-color="#58FDD0"/>
</linearGradient>
<linearGradient id="paint13_linear" x1="126.286" y1="145.419" x2="312.957" y2="145.419" gradientUnits="userSpaceOnUse">
<stop offset="0.333333" stop-color="#6BA7E0"/>
<stop offset="0.802083" stop-color="#55F9D0"/>
</linearGradient>
</defs>
</svg>
