<svg width="64" height="64" viewBox="0 0 64 64" fill="none" xmlns="http://www.w3.org/2000/svg">
<rect width="64" height="64" fill="url(#paint0_linear)"/>
<path d="M28.545 48.876C26.5085 48.876 24.6218 48.584 22.8848 48C21.1478 47.431 19.6355 46.585 18.3477 45.4619C17.045 44.3389 16.0268 42.9688 15.293 41.3516C14.5743 39.7344 14.2149 37.915 14.2149 35.8936C14.2149 32.8988 14.739 30.151 15.7872 27.6504C16.8503 25.1348 18.3253 22.9486 20.212 21.0918C22.0687 19.265 24.2849 17.8424 26.8604 16.8242C29.4509 15.791 32.2436 15.2744 35.2383 15.2744C37.0502 15.2744 38.8471 15.499 40.629 15.9482C42.4258 16.3825 43.7735 16.8542 44.6719 17.3633L46.334 16.1279H48.2881L45.8174 27.7627H43.8409C43.5115 24.3037 42.5831 21.7057 41.0557 19.9688C39.5434 18.2168 37.5818 17.3408 35.171 17.3408C33.2543 17.3408 31.5473 17.9098 30.0499 19.0479C28.5525 20.1859 27.2872 21.6608 26.254 23.4727C25.2357 25.2396 24.4421 27.3509 23.8731 29.8066C23.3191 32.2474 23.0421 34.6582 23.0421 37.0391C23.0421 40.0039 23.6186 42.3623 24.7715 44.1143C25.9395 45.8512 27.654 46.7197 29.9151 46.7197C31.143 46.7197 32.2061 46.5176 33.1046 46.1133C34.003 45.709 34.7966 45.2148 35.4854 44.6309L36.9005 38.5439C36.9603 38.2744 37.0053 38.0273 37.0352 37.8027C37.0801 37.5632 37.1026 37.376 37.1026 37.2412C37.1026 36.6123 36.7133 36.1257 35.9346 35.7812C35.156 35.4219 34.0479 35.1374 32.6104 34.9277L32.9922 33.2881H50.2422L49.8604 34.9277C49.3962 34.9577 48.8572 35.0326 48.2432 35.1523C47.6293 35.2721 47.1352 35.3844 46.7608 35.4893C46.1319 35.6839 45.6752 35.9909 45.3907 36.4102C45.1062 36.8145 44.904 37.2637 44.7842 37.7578L43.8858 41.6436C43.7361 42.3024 43.6088 42.9014 43.504 43.4404C43.4141 43.9645 43.3168 44.5335 43.212 45.1475C41.49 46.1357 39.2064 47.0042 36.3614 47.7529C33.5313 48.5016 30.9258 48.876 28.545 48.876Z" fill="white"/>
<path d="M22.8848 48L23.2035 47.0521L23.1961 47.0497L22.8848 48ZM18.3477 45.4619L19.005 44.7082L19.0007 44.7045L18.3477 45.4619ZM15.293 41.3516L14.3792 41.7577L14.3824 41.7647L15.293 41.3516ZM15.7872 27.6504L14.866 27.2611L14.8649 27.2638L15.7872 27.6504ZM20.212 21.0918L19.5106 20.379L19.5105 20.3791L20.212 21.0918ZM26.8604 16.8242L27.2281 17.7542L27.2309 17.7531L26.8604 16.8242ZM40.629 15.9482L40.3845 16.918L40.3941 16.9203L40.629 15.9482ZM44.6719 17.3633L44.1789 18.2333L44.7457 18.5544L45.2685 18.1659L44.6719 17.3633ZM46.334 16.1279V15.1279H46.0031L45.7375 15.3253L46.334 16.1279ZM48.2881 16.1279L49.2663 16.3357L49.5228 15.1279H48.2881V16.1279ZM45.8174 27.7627V28.7627H46.6274L46.7956 27.9704L45.8174 27.7627ZM43.8409 27.7627L42.8454 27.8575L42.9316 28.7627H43.8409V27.7627ZM41.0557 19.9688L40.2987 20.6222L40.3048 20.6291L41.0557 19.9688ZM26.254 23.4727L27.1204 23.972L27.1227 23.968L26.254 23.4727ZM23.8731 29.8066L22.8989 29.5809L22.8979 29.5853L23.8731 29.8066ZM24.7715 44.1143L23.9362 44.664L23.9417 44.6723L24.7715 44.1143ZM35.4854 44.6309L36.1321 45.3936L36.3845 45.1796L36.4594 44.8573L35.4854 44.6309ZM36.9005 38.5439L37.8745 38.7704L37.8766 38.7609L36.9005 38.5439ZM37.0352 37.8027L36.0523 37.6184L36.0475 37.6444L36.044 37.6706L37.0352 37.8027ZM35.9346 35.7812L35.5156 36.6892L35.5228 36.6926L35.5301 36.6958L35.9346 35.7812ZM32.6104 34.9277L31.6365 34.7009L31.3898 35.7603L32.4661 35.9173L32.6104 34.9277ZM32.9922 33.2881V32.2881H32.1984L32.0183 33.0613L32.9922 33.2881ZM50.2422 33.2881L51.2162 33.5149L51.5019 32.2881H50.2422V33.2881ZM49.8604 34.9277L49.9248 35.9257L50.6659 35.8778L50.8344 35.1545L49.8604 34.9277ZM46.7608 35.4893L46.4912 34.5263L46.4781 34.53L46.4651 34.534L46.7608 35.4893ZM45.3907 36.4102L46.2085 36.9856L46.2134 36.9787L46.2182 36.9717L45.3907 36.4102ZM44.7842 37.7578L43.8123 37.5222L43.8099 37.5325L44.7842 37.7578ZM43.8858 41.6436L42.9115 41.4183L42.9107 41.4219L43.8858 41.6436ZM43.504 43.4404L42.5224 43.2496L42.5202 43.2605L42.5183 43.2715L43.504 43.4404ZM43.212 45.1475L43.7097 46.0148L44.1184 45.7802L44.1977 45.3158L43.212 45.1475ZM36.3614 47.7529L36.1069 46.7859L36.1056 46.7862L36.3614 47.7529ZM28.545 47.876C26.6049 47.876 24.827 47.598 23.2035 47.0521L22.5661 48.9479C24.4166 49.57 26.4121 49.876 28.545 49.876V47.876ZM23.1961 47.0497C21.5775 46.5194 20.1849 45.7372 19.005 44.7083L17.6905 46.2156C19.0861 47.4327 20.7182 48.3425 22.5735 48.9503L23.1961 47.0497ZM19.0007 44.7045C17.8114 43.6793 16.8795 42.4279 16.2037 40.9384L14.3824 41.7647C15.174 43.5096 16.2786 44.9985 17.6948 46.2193L19.0007 44.7045ZM16.2068 40.9454C15.5525 39.4731 15.2149 37.795 15.2149 35.8936H13.2149C13.2149 38.0351 13.5961 39.9957 14.3792 41.7577L16.2068 40.9454ZM15.2149 35.8936C15.2149 33.0176 15.7177 30.403 16.7094 28.037L14.8649 27.2638C13.7603 29.8991 13.2149 32.7799 13.2149 35.8936H15.2149ZM16.7083 28.0397C17.7219 25.6413 19.1235 23.5661 20.9134 21.8045L19.5105 20.3791C17.527 22.3311 15.9788 24.6282 14.8661 27.2611L16.7083 28.0397ZM20.9133 21.8046C22.6686 20.0777 24.7692 18.7263 27.2281 17.7542L26.4928 15.8943C23.8006 16.9586 21.4689 18.4523 19.5106 20.379L20.9133 21.8046ZM27.2309 17.7531C29.695 16.7702 32.361 16.2744 35.2383 16.2744V14.2744C32.1261 14.2744 29.2068 14.8118 26.4899 15.8954L27.2309 17.7531ZM35.2383 16.2744C36.9666 16.2744 38.6814 16.4885 40.3845 16.9179L40.8734 14.9786C39.0127 14.5095 37.1338 14.2744 35.2383 14.2744V16.2744ZM40.3941 16.9203C42.1598 17.347 43.4012 17.7926 44.1789 18.2333L45.1649 16.4933C44.1458 15.9157 42.6919 15.418 40.8639 14.9762L40.3941 16.9203ZM45.2685 18.1659L46.9306 16.9305L45.7375 15.3253L44.0754 16.5607L45.2685 18.1659ZM46.334 17.1279H48.2881V15.1279H46.334V17.1279ZM47.31 15.9202L44.8393 27.555L46.7956 27.9704L49.2663 16.3357L47.31 15.9202ZM45.8174 26.7627H43.8409V28.7627H45.8174V26.7627ZM44.8364 27.6679C44.4965 24.0989 43.527 21.2649 41.8067 19.3084L40.3048 20.6291C41.6391 22.1466 42.5264 24.5085 42.8454 27.8575L44.8364 27.6679ZM41.8127 19.3153C40.1015 17.333 37.8586 16.3408 35.171 16.3408V18.3408C37.3049 18.3408 38.9852 19.1006 40.2988 20.6222L41.8127 19.3153ZM35.171 16.3408C33.0402 16.3408 31.1197 16.9787 29.4448 18.2517L30.6549 19.844C31.9748 18.8409 33.4683 18.3408 35.171 18.3408V16.3408ZM29.4448 18.2517C27.829 19.4797 26.4779 21.0612 25.3853 22.9773L27.1227 23.968C28.0964 22.2604 29.2759 20.8921 30.6549 19.844L29.4448 18.2517ZM25.3875 22.9734C24.3101 24.843 23.4851 27.0509 22.8989 29.5809L24.8473 30.0324C25.3991 27.6509 26.1614 25.6361 27.1204 23.972L25.3875 22.9734ZM22.8979 29.5853C22.3282 32.095 22.0421 34.58 22.0421 37.0391H24.0421C24.0421 34.7364 24.3099 32.3998 24.8483 30.028L22.8979 29.5853ZM22.0421 37.0391C22.0421 40.1218 22.6399 42.6943 23.9362 44.664L25.6069 43.5645C24.5972 42.0303 24.0421 39.886 24.0421 37.0391H22.0421ZM23.9417 44.6723C25.3124 46.7108 27.3527 47.7197 29.9151 47.7197V45.7197C27.9554 45.7197 26.5666 44.9917 25.6014 43.5563L23.9417 44.6723ZM29.9151 47.7197C31.2506 47.7197 32.4598 47.5 33.5149 47.0252L32.6942 45.2014C31.9524 45.5352 31.0353 45.7197 29.9151 45.7197V47.7197ZM33.5149 47.0252C34.491 46.586 35.3657 46.0434 36.1321 45.3936L34.8387 43.8681C34.2275 44.3863 33.515 44.832 32.6942 45.2014L33.5149 47.0252ZM36.4594 44.8573L37.8745 38.7704L35.9264 38.3175L34.5114 44.4044L36.4594 44.8573ZM37.8766 38.7609C37.9415 38.4691 37.992 38.1933 38.0264 37.9349L36.044 37.6706C36.0185 37.8614 35.9792 38.0797 35.9243 38.327L37.8766 38.7609ZM38.0181 37.987C38.0669 37.7269 38.1026 37.4685 38.1026 37.2412H36.1026C36.1026 37.2835 36.0934 37.3994 36.0523 37.6184L38.0181 37.987ZM38.1026 37.2412C38.1026 36.0731 37.3274 35.3038 36.3391 34.8667L35.5301 36.6958C36.0991 36.9475 36.1026 37.1515 36.1026 37.2412H38.1026ZM36.3537 34.8733C35.4481 34.4553 34.2312 34.1535 32.7547 33.9382L32.4661 35.9173C33.8647 36.1212 34.8638 36.3884 35.5156 36.6892L36.3537 34.8733ZM33.5844 35.1545L33.9662 33.5149L32.0183 33.0613L31.6365 34.7009L33.5844 35.1545ZM32.9922 34.2881H50.2422V32.2881H32.9922V34.2881ZM49.2683 33.0613L48.8865 34.7009L50.8344 35.1545L51.2162 33.5149L49.2683 33.0613ZM49.796 33.9298C49.2775 33.9633 48.6943 34.0455 48.0517 34.1709L48.4347 36.1338C49.02 36.0196 49.5149 35.9521 49.9248 35.9257L49.796 33.9298ZM48.0517 34.1709C47.4252 34.2931 46.9019 34.4113 46.4912 34.5263L47.0304 36.4522C47.3684 36.3576 47.8334 36.2512 48.4347 36.1338L48.0517 34.1709ZM46.4651 34.534C45.6849 34.7755 45.009 35.1917 44.5632 35.8487L46.2182 36.9717C46.3414 36.79 46.5789 36.5924 47.0565 36.4445L46.4651 34.534ZM44.5729 35.8347C44.2141 36.3445 43.9609 36.9097 43.8124 37.5222L45.7561 37.9934C45.8472 37.6177 45.9983 37.2844 46.2085 36.9856L44.5729 35.8347ZM43.8099 37.5325L42.9115 41.4183L44.8601 41.8688L45.7585 37.9831L43.8099 37.5325ZM42.9107 41.4219C42.7591 42.0888 42.6296 42.6982 42.5224 43.2496L44.4856 43.6313C44.588 43.1045 44.713 42.516 44.8609 41.8652L42.9107 41.4219ZM42.5183 43.2715C42.4285 43.7958 42.3311 44.365 42.2262 44.9792L44.1977 45.3158C44.3025 44.702 44.3998 44.1332 44.4896 43.6094L42.5183 43.2715ZM42.7142 44.2801C41.0957 45.2091 38.9035 46.0499 36.1069 46.7859L36.6159 48.72C39.5093 47.9586 41.8843 47.0624 43.7097 46.0148L42.7142 44.2801ZM36.1056 46.7862C33.3407 47.5176 30.8224 47.876 28.545 47.876V49.876C31.0292 49.876 33.7219 49.4856 36.6171 48.7197L36.1056 46.7862Z" fill="white"/>
<defs>
<linearGradient id="paint0_linear" x1="-19.4188" y1="37.1765" x2="79.3162" y2="37.1765" gradientUnits="userSpaceOnUse">
<stop offset="0.333333" stop-color="#6BA7E0"/>
<stop offset="0.802083" stop-color="#55F9D0"/>
</linearGradient>
</defs>
</svg>
